<?xml version="1.0" encoding="utf-8" standalone="no"?>
<!DOCTYPE svg PUBLIC "-//W3C//DTD SVG 1.1//EN"
  "http://www.w3.org/Graphics/SVG/1.1/DTD/svg11.dtd">
<svg xmlns:xlink="http://www.w3.org/1999/xlink" width="518.4pt" height="259.2pt" viewBox="0 0 518.4 259.2" xmlns="http://www.w3.org/2000/svg" version="1.1">
 <metadata>
  <rdf:RDF xmlns:dc="http://purl.org/dc/elements/1.1/" xmlns:cc="http://creativecommons.org/ns#" xmlns:rdf="http://www.w3.org/1999/02/22-rdf-syntax-ns#">
   <cc:Work>
    <dc:type rdf:resource="http://purl.org/dc/dcmitype/StillImage"/>
    <dc:date>2025-12-25T03:49:36.261180</dc:date>
    <dc:format>image/svg+xml</dc:format>
    <dc:creator>
     <cc:Agent>
      <dc:title>Matplotlib v3.10.8, https://matplotlib.org/</dc:title>
     </cc:Agent>
    </dc:creator>
   </cc:Work>
  </rdf:RDF>
 </metadata>
 <defs>
  <style type="text/css">*{stroke-linejoin: round; stroke-linecap: butt}</style>
 </defs>
 <g id="figure_1">
  <g id="patch_1">
   <path d="M 0 259.2 
L 518.4 259.2 
L 518.4 0 
L 0 0 
z
" style="fill: #ffffff"/>
  </g>
  <g id="axes_1">
   <g id="patch_2">
    <path d="M 80.472805 169.321363 
L 507.6 169.321363 
L 507.6 10.8 
L 80.472805 10.8 
z
" style="fill: #ffffff"/>
   </g>
   <g id="patch_3">
    <path d="M 100.186368 169.321363 
L 119.899931 169.321363 
L 119.899931 34.139994 
L 100.186368 34.139994 
z
" clip-path="url(#p5116158d9d)" style="fill: #4c72b0; stroke: #000000; stroke-width: 0.3; stroke-linejoin: miter"/>
   </g>
   <g id="patch_4">
    <path d="M 182.326213 169.321363 
L 202.039776 169.321363 
L 202.039776 72.443218 
L 182.326213 72.443218 
z
" clip-path="url(#p5116158d9d)" style="fill: #4c72b0; stroke: #000000; stroke-width: 0.3; stroke-linejoin: miter"/>
   </g>
   <g id="patch_5">
    <path d="M 264.466058 169.321363 
L 284.179621 169.321363 
L 284.179621 23.563457 
L 264.466058 23.563457 
z
" clip-path="url(#p5116158d9d)" style="fill: #4c72b0; stroke: #000000; stroke-width: 0.3; stroke-linejoin: miter"/>
   </g>
   <g id="patch_6">
    <path d="M 346.605903 169.321363 
L 366.319466 169.321363 
L 366.319466 29.843276 
L 346.605903 29.843276 
z
" clip-path="url(#p5116158d9d)" style="fill: #4c72b0; stroke: #000000; stroke-width: 0.3; stroke-linejoin: miter"/>
   </g>
   <g id="patch_7">
    <path d="M 428.745749 169.321363 
L 448.459311 169.321363 
L 448.459311 18.348636 
L 428.745749 18.348636 
z
" clip-path="url(#p5116158d9d)" style="fill: #4c72b0; stroke: #000000; stroke-width: 0.3; stroke-linejoin: miter"/>
   </g>
   <g id="patch_8">
    <path d="M 119.899931 169.321363 
L 139.613493 169.321363 
L 139.613493 25.913799 
L 119.899931 25.913799 
z
" clip-path="url(#p5116158d9d)" style="fill: #55a868; stroke: #000000; stroke-width: 0.3; stroke-linejoin: miter"/>
   </g>
   <g id="patch_9">
    <path d="M 202.039776 169.321363 
L 221.753339 169.321363 
L 221.753339 72.333046 
L 202.039776 72.333046 
z
" clip-path="url(#p5116158d9d)" style="fill: #55a868; stroke: #000000; stroke-width: 0.3; stroke-linejoin: miter"/>
   </g>
   <g id="patch_10">
    <path d="M 284.179621 169.321363 
L 303.893184 169.321363 
L 303.893184 58.010652 
L 284.179621 58.010652 
z
" clip-path="url(#p5116158d9d)" style="fill: #55a868; stroke: #000000; stroke-width: 0.3; stroke-linejoin: miter"/>
   </g>
   <g id="patch_11">
    <path d="M 366.319466 169.321363 
L 386.033029 169.321363 
L 386.033029 76.152351 
L 366.319466 76.152351 
z
" clip-path="url(#p5116158d9d)" style="fill: #55a868; stroke: #000000; stroke-width: 0.3; stroke-linejoin: miter"/>
   </g>
   <g id="patch_12">
    <path d="M 448.459311 169.321363 
L 468.172874 169.321363 
L 468.172874 68.550465 
L 448.459311 68.550465 
z
" clip-path="url(#p5116158d9d)" style="fill: #55a868; stroke: #000000; stroke-width: 0.3; stroke-linejoin: miter"/>
   </g>
   <g id="patch_13">
    <path d="M 139.613493 169.321363 
L 159.327056 169.321363 
L 159.327056 115.336953 
L 139.613493 115.336953 
z
" clip-path="url(#p5116158d9d)" style="fill: #c44e52; stroke: #000000; stroke-width: 0.3; stroke-linejoin: miter"/>
   </g>
   <g id="patch_14">
    <path d="M 221.753339 169.321363 
L 241.466901 169.321363 
L 241.466901 143.394157 
L 221.753339 143.394157 
z
" clip-path="url(#p5116158d9d)" style="fill: #c44e52; stroke: #000000; stroke-width: 0.3; stroke-linejoin: miter"/>
   </g>
   <g id="patch_15">
    <path d="M 303.893184 169.321363 
L 323.606747 169.321363 
L 323.606747 97.34215 
L 303.893184 97.34215 
z
" clip-path="url(#p5116158d9d)" style="fill: #c44e52; stroke: #000000; stroke-width: 0.3; stroke-linejoin: miter"/>
   </g>
   <g id="patch_16">
    <path d="M 386.033029 169.321363 
L 405.746592 169.321363 
L 405.746592 114.712644 
L 386.033029 114.712644 
z
" clip-path="url(#p5116158d9d)" style="fill: #c44e52; stroke: #000000; stroke-width: 0.3; stroke-linejoin: miter"/>
   </g>
   <g id="patch_17">
    <path d="M 468.172874 169.321363 
L 487.886437 169.321363 
L 487.886437 111.26058 
L 468.172874 111.26058 
z
" clip-path="url(#p5116158d9d)" style="fill: #c44e52; stroke: #000000; stroke-width: 0.3; stroke-linejoin: miter"/>
   </g>
   <g id="matplotlib.axis_1">
    <g id="xtick_1">
     <g id="line2d_1">
      <defs>
       <path id="m5872e927fd" d="M 0 0 
L 0 3.5 
" style="stroke: #000000; stroke-width: 0.8"/>
      </defs>
      <g>
       <use xlink:href="#m5872e927fd" x="129.756712" y="169.321363" style="stroke: #000000; stroke-width: 0.8"/>
      </g>
     </g>
     <g id="text_1">
      <!-- Gemma 3n E4B (MLX 4bit) -->
      <g transform="translate(17.099411 234.683336) rotate(-25) scale(0.09 -0.09)">
       <defs>
        <path id="DejaVuSerif-47" d="M 4097 3272 
Q 3988 3856 3641 4136 
Q 3294 4416 2675 4416 
Q 1869 4416 1472 3897 
Q 1075 3378 1075 2328 
Q 1075 1300 1484 772 
Q 1894 244 2688 244 
Q 3041 244 3362 331 
Q 3684 419 3975 594 
L 3975 1797 
L 3097 1797 
L 3097 2131 
L 4609 2131 
L 4609 391 
Q 4194 150 3714 29 
Q 3234 -91 2688 -91 
Q 1631 -91 995 570 
Q 359 1231 359 2328 
Q 359 3434 996 4092 
Q 1634 4750 2713 4750 
Q 3113 4750 3539 4658 
Q 3966 4566 4447 4378 
L 4447 3272 
L 4097 3272 
z
" transform="scale(0.015625)"/>
        <path id="DejaVuSerif-65" d="M 3469 1600 
L 991 1600 
L 991 1575 
Q 991 903 1244 561 
Q 1497 219 1991 219 
Q 2369 219 2611 417 
Q 2853 616 2950 1006 
L 3413 1006 
Q 3275 459 2904 184 
Q 2534 -91 1931 -91 
Q 1203 -91 761 389 
Q 319 869 319 1663 
Q 319 2450 753 2931 
Q 1188 3413 1894 3413 
Q 2647 3413 3050 2948 
Q 3453 2484 3469 1600 
z
M 2791 1931 
Q 2772 2513 2545 2808 
Q 2319 3103 1894 3103 
Q 1497 3103 1269 2806 
Q 1041 2509 991 1931 
L 2791 1931 
z
" transform="scale(0.015625)"/>
        <path id="DejaVuSerif-6d" d="M 3316 2675 
Q 3481 3041 3739 3227 
Q 3997 3413 4341 3413 
Q 4863 3413 5119 3089 
Q 5375 2766 5375 2113 
L 5375 331 
L 5894 331 
L 5894 0 
L 4300 0 
L 4300 331 
L 4800 331 
L 4800 2047 
Q 4800 2556 4650 2772 
Q 4500 2988 4153 2988 
Q 3769 2988 3567 2697 
Q 3366 2406 3366 1850 
L 3366 331 
L 3866 331 
L 3866 0 
L 2291 0 
L 2291 331 
L 2791 331 
L 2791 2069 
Q 2791 2566 2641 2777 
Q 2491 2988 2144 2988 
Q 1759 2988 1557 2697 
Q 1356 2406 1356 1850 
L 1356 331 
L 1856 331 
L 1856 0 
L 263 0 
L 263 331 
L 781 331 
L 781 2994 
L 231 2994 
L 231 3322 
L 1356 3322 
L 1356 2731 
Q 1516 3063 1762 3238 
Q 2009 3413 2322 3413 
Q 2709 3413 2968 3220 
Q 3228 3028 3316 2675 
z
" transform="scale(0.015625)"/>
        <path id="DejaVuSerif-61" d="M 2547 1044 
L 2547 1747 
L 1806 1747 
Q 1378 1747 1168 1562 
Q 959 1378 959 997 
Q 959 650 1171 447 
Q 1384 244 1747 244 
Q 2106 244 2326 466 
Q 2547 688 2547 1044 
z
M 3122 2075 
L 3122 331 
L 3634 331 
L 3634 0 
L 2547 0 
L 2547 359 
Q 2356 128 2106 18 
Q 1856 -91 1522 -91 
Q 969 -91 644 203 
Q 319 497 319 997 
Q 319 1513 691 1797 
Q 1063 2081 1741 2081 
L 2547 2081 
L 2547 2309 
Q 2547 2688 2317 2895 
Q 2088 3103 1672 3103 
Q 1328 3103 1125 2947 
Q 922 2791 872 2484 
L 575 2484 
L 575 3156 
Q 875 3284 1158 3348 
Q 1441 3413 1709 3413 
Q 2400 3413 2761 3070 
Q 3122 2728 3122 2075 
z
" transform="scale(0.015625)"/>
        <path id="DejaVuSerif-20" transform="scale(0.015625)"/>
        <path id="DejaVuSerif-33" d="M 622 4469 
Q 988 4606 1323 4678 
Q 1659 4750 1953 4750 
Q 2638 4750 3022 4454 
Q 3406 4159 3406 3634 
Q 3406 3213 3140 2930 
Q 2875 2647 2388 2547 
Q 2963 2466 3280 2130 
Q 3597 1794 3597 1259 
Q 3597 606 3158 257 
Q 2719 -91 1894 -91 
Q 1528 -91 1179 -12 
Q 831 66 488 225 
L 488 1131 
L 838 1131 
Q 869 681 1141 450 
Q 1413 219 1906 219 
Q 2384 219 2661 495 
Q 2938 772 2938 1253 
Q 2938 1803 2653 2086 
Q 2369 2369 1819 2369 
L 1522 2369 
L 1522 2688 
L 1678 2688 
Q 2225 2688 2498 2914 
Q 2772 3141 2772 3597 
Q 2772 4006 2547 4223 
Q 2322 4441 1900 4441 
Q 1478 4441 1245 4241 
Q 1013 4041 972 3647 
L 622 3647 
L 622 4469 
z
" transform="scale(0.015625)"/>
        <path id="DejaVuSerif-6e" d="M 263 0 
L 263 331 
L 781 331 
L 781 2988 
L 231 2988 
L 231 3322 
L 1356 3322 
L 1356 2731 
Q 1516 3069 1770 3241 
Q 2025 3413 2363 3413 
Q 2913 3413 3172 3097 
Q 3431 2781 3431 2113 
L 3431 331 
L 3944 331 
L 3944 0 
L 2356 0 
L 2356 331 
L 2853 331 
L 2853 1931 
Q 2853 2541 2703 2767 
Q 2553 2994 2175 2994 
Q 1775 2994 1565 2701 
Q 1356 2409 1356 1850 
L 1356 331 
L 1856 331 
L 1856 0 
L 263 0 
z
" transform="scale(0.015625)"/>
        <path id="DejaVuSerif-45" d="M 353 0 
L 353 331 
L 947 331 
L 947 4331 
L 353 4331 
L 353 4666 
L 4109 4666 
L 4109 3628 
L 3725 3628 
L 3725 4281 
L 1581 4281 
L 1581 2719 
L 3109 2719 
L 3109 3303 
L 3494 3303 
L 3494 1753 
L 3109 1753 
L 3109 2338 
L 1581 2338 
L 1581 384 
L 3775 384 
L 3775 1038 
L 4159 1038 
L 4159 0 
L 353 0 
z
" transform="scale(0.015625)"/>
        <path id="DejaVuSerif-34" d="M 2234 1581 
L 2234 4063 
L 641 1581 
L 2234 1581 
z
M 3609 0 
L 1484 0 
L 1484 331 
L 2234 331 
L 2234 1247 
L 197 1247 
L 197 1588 
L 2241 4750 
L 2859 4750 
L 2859 1581 
L 3750 1581 
L 3750 1247 
L 2859 1247 
L 2859 331 
L 3609 331 
L 3609 0 
z
" transform="scale(0.015625)"/>
        <path id="DejaVuSerif-42" d="M 1581 331 
L 2516 331 
Q 3078 331 3337 575 
Q 3597 819 3597 1350 
Q 3597 1878 3339 2120 
Q 3081 2363 2516 2363 
L 1581 2363 
L 1581 331 
z
M 1581 2694 
L 2375 2694 
Q 2888 2694 3123 2891 
Q 3359 3088 3359 3513 
Q 3359 3941 3123 4136 
Q 2888 4331 2375 4331 
L 1581 4331 
L 1581 2694 
z
M 353 0 
L 353 331 
L 947 331 
L 947 4331 
L 353 4331 
L 353 4666 
L 2656 4666 
Q 3363 4666 3720 4377 
Q 4078 4088 4078 3513 
Q 4078 3097 3829 2850 
Q 3581 2603 3103 2547 
Q 3697 2472 4005 2167 
Q 4313 1863 4313 1350 
Q 4313 656 3875 328 
Q 3438 0 2509 0 
L 353 0 
z
" transform="scale(0.015625)"/>
        <path id="DejaVuSerif-28" d="M 2041 -997 
Q 1281 -656 893 83 
Q 506 822 506 1931 
Q 506 3044 893 3783 
Q 1281 4522 2041 4863 
L 2041 4556 
Q 1559 4225 1350 3623 
Q 1141 3022 1141 1931 
Q 1141 844 1350 242 
Q 1559 -359 2041 -691 
L 2041 -997 
z
" transform="scale(0.015625)"/>
        <path id="DejaVuSerif-4d" d="M 353 0 
L 353 331 
L 947 331 
L 947 4331 
L 319 4331 
L 319 4666 
L 1678 4666 
L 3316 1344 
L 4953 4666 
L 6228 4666 
L 6228 4331 
L 5606 4331 
L 5606 331 
L 6203 331 
L 6203 0 
L 4378 0 
L 4378 331 
L 4972 331 
L 4972 3938 
L 3372 684 
L 2931 684 
L 1331 3938 
L 1331 331 
L 1925 331 
L 1925 0 
L 353 0 
z
" transform="scale(0.015625)"/>
        <path id="DejaVuSerif-4c" d="M 353 0 
L 353 331 
L 947 331 
L 947 4331 
L 353 4331 
L 353 4666 
L 2175 4666 
L 2175 4331 
L 1581 4331 
L 1581 384 
L 3713 384 
L 3713 1166 
L 4097 1166 
L 4097 0 
L 353 0 
z
" transform="scale(0.015625)"/>
        <path id="DejaVuSerif-58" d="M 2119 1997 
L 978 331 
L 1581 331 
L 1581 0 
L 38 0 
L 38 331 
L 575 331 
L 1919 2291 
L 556 4331 
L 56 4331 
L 56 4666 
L 1906 4666 
L 1906 4331 
L 1356 4331 
L 2356 2828 
L 3384 4331 
L 2784 4331 
L 2784 4666 
L 4313 4666 
L 4313 4331 
L 3788 4331 
L 2553 2534 
L 4025 331 
L 4525 331 
L 4525 0 
L 2675 0 
L 2675 331 
L 3231 331 
L 2119 1997 
z
" transform="scale(0.015625)"/>
        <path id="DejaVuSerif-62" d="M 738 331 
L 738 4531 
L 184 4531 
L 184 4863 
L 1313 4863 
L 1313 2803 
Q 1481 3116 1742 3264 
Q 2003 3413 2388 3413 
Q 3000 3413 3387 2928 
Q 3775 2444 3775 1663 
Q 3775 881 3387 395 
Q 3000 -91 2388 -91 
Q 2003 -91 1742 57 
Q 1481 206 1313 519 
L 1313 0 
L 184 0 
L 184 331 
L 738 331 
z
M 1313 1497 
Q 1313 897 1542 583 
Q 1772 269 2209 269 
Q 2650 269 2876 622 
Q 3103 975 3103 1663 
Q 3103 2353 2876 2703 
Q 2650 3053 2209 3053 
Q 1772 3053 1542 2737 
Q 1313 2422 1313 1825 
L 1313 1497 
z
" transform="scale(0.015625)"/>
        <path id="DejaVuSerif-69" d="M 622 4353 
Q 622 4497 726 4603 
Q 831 4709 978 4709 
Q 1122 4709 1226 4603 
Q 1331 4497 1331 4353 
Q 1331 4206 1228 4103 
Q 1125 4000 978 4000 
Q 831 4000 726 4103 
Q 622 4206 622 4353 
z
M 1356 331 
L 1900 331 
L 1900 0 
L 231 0 
L 231 331 
L 781 331 
L 781 2988 
L 231 2988 
L 231 3322 
L 1356 3322 
L 1356 331 
z
" transform="scale(0.015625)"/>
        <path id="DejaVuSerif-74" d="M 691 2988 
L 184 2988 
L 184 3322 
L 691 3322 
L 691 4353 
L 1269 4353 
L 1269 3322 
L 2350 3322 
L 2350 2988 
L 1269 2988 
L 1269 878 
Q 1269 456 1350 337 
Q 1431 219 1650 219 
Q 1875 219 1978 351 
Q 2081 484 2088 781 
L 2522 781 
Q 2497 328 2275 118 
Q 2053 -91 1600 -91 
Q 1103 -91 897 129 
Q 691 350 691 878 
L 691 2988 
z
" transform="scale(0.015625)"/>
        <path id="DejaVuSerif-29" d="M 453 -997 
L 453 -691 
Q 934 -359 1145 242 
Q 1356 844 1356 1931 
Q 1356 3022 1145 3623 
Q 934 4225 453 4556 
L 453 4863 
Q 1216 4522 1603 3783 
Q 1991 3044 1991 1931 
Q 1991 822 1603 83 
Q 1216 -656 453 -997 
z
" transform="scale(0.015625)"/>
       </defs>
       <use xlink:href="#DejaVuSerif-47"/>
       <use xlink:href="#DejaVuSerif-65" transform="translate(79.882812 0)"/>
       <use xlink:href="#DejaVuSerif-6d" transform="translate(139.0625 0)"/>
       <use xlink:href="#DejaVuSerif-6d" transform="translate(233.886719 0)"/>
       <use xlink:href="#DejaVuSerif-61" transform="translate(328.710938 0)"/>
       <use xlink:href="#DejaVuSerif-20" transform="translate(388.330078 0)"/>
       <use xlink:href="#DejaVuSerif-33" transform="translate(420.117188 0)"/>
       <use xlink:href="#DejaVuSerif-6e" transform="translate(483.740234 0)"/>
       <use xlink:href="#DejaVuSerif-20" transform="translate(548.144531 0)"/>
       <use xlink:href="#DejaVuSerif-45" transform="translate(579.931641 0)"/>
       <use xlink:href="#DejaVuSerif-34" transform="translate(652.929688 0)"/>
       <use xlink:href="#DejaVuSerif-42" transform="translate(716.552734 0)"/>
       <use xlink:href="#DejaVuSerif-20" transform="translate(790.039062 0)"/>
       <use xlink:href="#DejaVuSerif-28" transform="translate(821.826172 0)"/>
       <use xlink:href="#DejaVuSerif-4d" transform="translate(860.839844 0)"/>
       <use xlink:href="#DejaVuSerif-4c" transform="translate(963.232422 0)"/>
       <use xlink:href="#DejaVuSerif-58" transform="translate(1029.638672 0)"/>
       <use xlink:href="#DejaVuSerif-20" transform="translate(1100.830078 0)"/>
       <use xlink:href="#DejaVuSerif-34" transform="translate(1132.617188 0)"/>
       <use xlink:href="#DejaVuSerif-62" transform="translate(1196.240234 0)"/>
       <use xlink:href="#DejaVuSerif-69" transform="translate(1260.253906 0)"/>
       <use xlink:href="#DejaVuSerif-74" transform="translate(1292.236328 0)"/>
       <use xlink:href="#DejaVuSerif-29" transform="translate(1332.421875 0)"/>
      </g>
     </g>
    </g>
    <g id="xtick_2">
     <g id="line2d_2">
      <g>
       <use xlink:href="#m5872e927fd" x="211.896557" y="169.321363" style="stroke: #000000; stroke-width: 0.8"/>
      </g>
     </g>
     <g id="text_2">
      <!-- Gemma 3n E4B (GGUF Q4_K_M) -->
      <g transform="translate(74.960117 245.955556) rotate(-25) scale(0.09 -0.09)">
       <defs>
        <path id="DejaVuSerif-55" d="M 897 4331 
L 300 4331 
L 300 4666 
L 2125 4666 
L 2125 4331 
L 1528 4331 
L 1528 1919 
Q 1528 1025 1820 672 
Q 2113 319 2828 319 
Q 3544 319 3836 672 
Q 4128 1025 4128 1919 
L 4128 4331 
L 3531 4331 
L 3531 4666 
L 5106 4666 
L 5106 4331 
L 4513 4331 
L 4513 1856 
Q 4513 791 4103 350 
Q 3694 -91 2713 -91 
Q 1731 -91 1314 353 
Q 897 797 897 1856 
L 897 4331 
z
" transform="scale(0.015625)"/>
        <path id="DejaVuSerif-46" d="M 353 0 
L 353 331 
L 947 331 
L 947 4331 
L 353 4331 
L 353 4666 
L 4172 4666 
L 4172 3628 
L 3788 3628 
L 3788 4281 
L 1581 4281 
L 1581 2719 
L 3175 2719 
L 3175 3303 
L 3559 3303 
L 3559 1753 
L 3175 1753 
L 3175 2338 
L 1581 2338 
L 1581 331 
L 2328 331 
L 2328 0 
L 353 0 
z
" transform="scale(0.015625)"/>
        <path id="DejaVuSerif-51" d="M 2700 -91 
Q 1628 -91 993 567 
Q 359 1225 359 2328 
Q 359 2894 529 3339 
Q 700 3784 1050 4134 
Q 1356 4441 1750 4595 
Q 2144 4750 2625 4750 
Q 3641 4750 4266 4084 
Q 4891 3419 4891 2328 
Q 4891 1403 4422 773 
Q 3953 144 3128 -38 
Q 3297 -247 3539 -347 
Q 3781 -447 4122 -447 
L 4219 -447 
L 4219 -1025 
Q 3691 -1000 3314 -767 
Q 2938 -534 2700 -91 
z
M 2625 244 
Q 3391 244 3781 770 
Q 4172 1297 4172 2328 
Q 4172 3363 3781 3889 
Q 3391 4416 2625 4416 
Q 1856 4416 1465 3889 
Q 1075 3363 1075 2328 
Q 1075 1297 1465 770 
Q 1856 244 2625 244 
z
" transform="scale(0.015625)"/>
        <path id="DejaVuSerif-5f" d="M 3200 -1259 
L 3200 -1509 
L 0 -1509 
L 0 -1259 
L 3200 -1259 
z
" transform="scale(0.015625)"/>
        <path id="DejaVuSerif-4b" d="M 353 0 
L 353 331 
L 947 331 
L 947 4331 
L 353 4331 
L 353 4666 
L 2175 4666 
L 2175 4331 
L 1581 4331 
L 1581 2566 
L 3591 4331 
L 3084 4331 
L 3084 4666 
L 4634 4666 
L 4634 4331 
L 4109 4331 
L 2106 2572 
L 4347 331 
L 4878 331 
L 4878 0 
L 3794 0 
L 1581 2216 
L 1581 331 
L 2175 331 
L 2175 0 
L 353 0 
z
" transform="scale(0.015625)"/>
       </defs>
       <use xlink:href="#DejaVuSerif-47"/>
       <use xlink:href="#DejaVuSerif-65" transform="translate(79.882812 0)"/>
       <use xlink:href="#DejaVuSerif-6d" transform="translate(139.0625 0)"/>
       <use xlink:href="#DejaVuSerif-6d" transform="translate(233.886719 0)"/>
       <use xlink:href="#DejaVuSerif-61" transform="translate(328.710938 0)"/>
       <use xlink:href="#DejaVuSerif-20" transform="translate(388.330078 0)"/>
       <use xlink:href="#DejaVuSerif-33" transform="translate(420.117188 0)"/>
       <use xlink:href="#DejaVuSerif-6e" transform="translate(483.740234 0)"/>
       <use xlink:href="#DejaVuSerif-20" transform="translate(548.144531 0)"/>
       <use xlink:href="#DejaVuSerif-45" transform="translate(579.931641 0)"/>
       <use xlink:href="#DejaVuSerif-34" transform="translate(652.929688 0)"/>
       <use xlink:href="#DejaVuSerif-42" transform="translate(716.552734 0)"/>
       <use xlink:href="#DejaVuSerif-20" transform="translate(790.039062 0)"/>
       <use xlink:href="#DejaVuSerif-28" transform="translate(821.826172 0)"/>
       <use xlink:href="#DejaVuSerif-47" transform="translate(860.839844 0)"/>
       <use xlink:href="#DejaVuSerif-47" transform="translate(940.722656 0)"/>
       <use xlink:href="#DejaVuSerif-55" transform="translate(1020.605469 0)"/>
       <use xlink:href="#DejaVuSerif-46" transform="translate(1104.882812 0)"/>
       <use xlink:href="#DejaVuSerif-20" transform="translate(1174.267578 0)"/>
       <use xlink:href="#DejaVuSerif-51" transform="translate(1206.054688 0)"/>
       <use xlink:href="#DejaVuSerif-34" transform="translate(1288.037109 0)"/>
       <use xlink:href="#DejaVuSerif-5f" transform="translate(1351.660156 0)"/>
       <use xlink:href="#DejaVuSerif-4b" transform="translate(1401.660156 0)"/>
       <use xlink:href="#DejaVuSerif-5f" transform="translate(1476.367188 0)"/>
       <use xlink:href="#DejaVuSerif-4d" transform="translate(1526.367188 0)"/>
       <use xlink:href="#DejaVuSerif-29" transform="translate(1628.759766 0)"/>
      </g>
     </g>
    </g>
    <g id="xtick_3">
     <g id="line2d_3">
      <g>
       <use xlink:href="#m5872e927fd" x="294.036402" y="169.321363" style="stroke: #000000; stroke-width: 0.8"/>
      </g>
     </g>
     <g id="text_3">
      <!-- Qwen3-VL 4B (MLX 4bit) -->
      <g transform="translate(189.634008 230.83401) rotate(-25) scale(0.09 -0.09)">
       <defs>
        <path id="DejaVuSerif-77" d="M 3072 3322 
L 3922 728 
L 4672 2988 
L 4191 2988 
L 4191 3322 
L 5394 3322 
L 5394 2988 
L 5025 2988 
L 4038 0 
L 3559 0 
L 2741 2484 
L 1919 0 
L 1459 0 
L 475 2988 
L 103 2988 
L 103 3322 
L 1606 3322 
L 1606 2988 
L 1069 2988 
L 1813 728 
L 2669 3322 
L 3072 3322 
z
" transform="scale(0.015625)"/>
        <path id="DejaVuSerif-2d" d="M 281 1959 
L 1881 1959 
L 1881 1472 
L 281 1472 
L 281 1959 
z
" transform="scale(0.015625)"/>
        <path id="DejaVuSerif-56" d="M 1119 4331 
L 2497 750 
L 3872 4331 
L 3347 4331 
L 3347 4666 
L 4716 4666 
L 4716 4331 
L 4263 4331 
L 2597 0 
L 2059 0 
L 403 4331 
L -63 4331 
L -63 4666 
L 1638 4666 
L 1638 4331 
L 1119 4331 
z
" transform="scale(0.015625)"/>
       </defs>
       <use xlink:href="#DejaVuSerif-51"/>
       <use xlink:href="#DejaVuSerif-77" transform="translate(81.982422 0)"/>
       <use xlink:href="#DejaVuSerif-65" transform="translate(167.578125 0)"/>
       <use xlink:href="#DejaVuSerif-6e" transform="translate(226.757812 0)"/>
       <use xlink:href="#DejaVuSerif-33" transform="translate(291.162109 0)"/>
       <use xlink:href="#DejaVuSerif-2d" transform="translate(354.785156 0)"/>
       <use xlink:href="#DejaVuSerif-56" transform="translate(381.324219 0)"/>
       <use xlink:href="#DejaVuSerif-4c" transform="translate(453.541016 0)"/>
       <use xlink:href="#DejaVuSerif-20" transform="translate(519.947266 0)"/>
       <use xlink:href="#DejaVuSerif-34" transform="translate(551.734375 0)"/>
       <use xlink:href="#DejaVuSerif-42" transform="translate(615.357422 0)"/>
       <use xlink:href="#DejaVuSerif-20" transform="translate(688.84375 0)"/>
       <use xlink:href="#DejaVuSerif-28" transform="translate(720.630859 0)"/>
       <use xlink:href="#DejaVuSerif-4d" transform="translate(759.644531 0)"/>
       <use xlink:href="#DejaVuSerif-4c" transform="translate(862.037109 0)"/>
       <use xlink:href="#DejaVuSerif-58" transform="translate(928.443359 0)"/>
       <use xlink:href="#DejaVuSerif-20" transform="translate(999.634766 0)"/>
       <use xlink:href="#DejaVuSerif-34" transform="translate(1031.421875 0)"/>
       <use xlink:href="#DejaVuSerif-62" transform="translate(1095.044922 0)"/>
       <use xlink:href="#DejaVuSerif-69" transform="translate(1159.058594 0)"/>
       <use xlink:href="#DejaVuSerif-74" transform="translate(1191.041016 0)"/>
       <use xlink:href="#DejaVuSerif-29" transform="translate(1231.226562 0)"/>
      </g>
     </g>
    </g>
    <g id="xtick_4">
     <g id="line2d_4">
      <g>
       <use xlink:href="#m5872e927fd" x="376.176248" y="169.321363" style="stroke: #000000; stroke-width: 0.8"/>
      </g>
     </g>
     <g id="text_4">
      <!-- Qwen3-VL 4B (GGUF Q4_K_M) -->
      <g transform="translate(247.494714 242.10623) rotate(-25) scale(0.09 -0.09)">
       <use xlink:href="#DejaVuSerif-51"/>
       <use xlink:href="#DejaVuSerif-77" transform="translate(81.982422 0)"/>
       <use xlink:href="#DejaVuSerif-65" transform="translate(167.578125 0)"/>
       <use xlink:href="#DejaVuSerif-6e" transform="translate(226.757812 0)"/>
       <use xlink:href="#DejaVuSerif-33" transform="translate(291.162109 0)"/>
       <use xlink:href="#DejaVuSerif-2d" transform="translate(354.785156 0)"/>
       <use xlink:href="#DejaVuSerif-56" transform="translate(381.324219 0)"/>
       <use xlink:href="#DejaVuSerif-4c" transform="translate(453.541016 0)"/>
       <use xlink:href="#DejaVuSerif-20" transform="translate(519.947266 0)"/>
       <use xlink:href="#DejaVuSerif-34" transform="translate(551.734375 0)"/>
       <use xlink:href="#DejaVuSerif-42" transform="translate(615.357422 0)"/>
       <use xlink:href="#DejaVuSerif-20" transform="translate(688.84375 0)"/>
       <use xlink:href="#DejaVuSerif-28" transform="translate(720.630859 0)"/>
       <use xlink:href="#DejaVuSerif-47" transform="translate(759.644531 0)"/>
       <use xlink:href="#DejaVuSerif-47" transform="translate(839.527344 0)"/>
       <use xlink:href="#DejaVuSerif-55" transform="translate(919.410156 0)"/>
       <use xlink:href="#DejaVuSerif-46" transform="translate(1003.6875 0)"/>
       <use xlink:href="#DejaVuSerif-20" transform="translate(1073.072266 0)"/>
       <use xlink:href="#DejaVuSerif-51" transform="translate(1104.859375 0)"/>
       <use xlink:href="#DejaVuSerif-34" transform="translate(1186.841797 0)"/>
       <use xlink:href="#DejaVuSerif-5f" transform="translate(1250.464844 0)"/>
       <use xlink:href="#DejaVuSerif-4b" transform="translate(1300.464844 0)"/>
       <use xlink:href="#DejaVuSerif-5f" transform="translate(1375.171875 0)"/>
       <use xlink:href="#DejaVuSerif-4d" transform="translate(1425.171875 0)"/>
       <use xlink:href="#DejaVuSerif-29" transform="translate(1527.564453 0)"/>
      </g>
     </g>
    </g>
    <g id="xtick_5">
     <g id="line2d_5">
      <g>
       <use xlink:href="#m5872e927fd" x="458.316093" y="169.321363" style="stroke: #000000; stroke-width: 0.8"/>
      </g>
     </g>
     <g id="text_5">
      <!-- Ministral 3 3B (GGUF Q4_K_M) -->
      <g transform="translate(326.607632 243.517709) rotate(-25) scale(0.09 -0.09)">
       <defs>
        <path id="DejaVuSerif-73" d="M 359 184 
L 359 959 
L 691 959 
Q 703 588 923 403 
Q 1144 219 1575 219 
Q 1963 219 2166 364 
Q 2369 509 2369 788 
Q 2369 1006 2220 1140 
Q 2072 1275 1594 1428 
L 1178 1569 
Q 750 1706 558 1912 
Q 366 2119 366 2438 
Q 366 2894 700 3153 
Q 1034 3413 1625 3413 
Q 1888 3413 2178 3344 
Q 2469 3275 2778 3144 
L 2778 2419 
L 2447 2419 
Q 2434 2741 2221 2922 
Q 2009 3103 1644 3103 
Q 1281 3103 1095 2975 
Q 909 2847 909 2591 
Q 909 2381 1050 2254 
Q 1191 2128 1613 1997 
L 2069 1856 
Q 2541 1709 2748 1489 
Q 2956 1269 2956 922 
Q 2956 450 2595 179 
Q 2234 -91 1600 -91 
Q 1278 -91 972 -22 
Q 666 47 359 184 
z
" transform="scale(0.015625)"/>
        <path id="DejaVuSerif-72" d="M 3059 3328 
L 3059 2497 
L 2728 2497 
Q 2713 2744 2591 2866 
Q 2469 2988 2234 2988 
Q 1809 2988 1582 2694 
Q 1356 2400 1356 1850 
L 1356 331 
L 2022 331 
L 2022 0 
L 263 0 
L 263 331 
L 781 331 
L 781 2994 
L 231 2994 
L 231 3322 
L 1356 3322 
L 1356 2731 
Q 1525 3078 1790 3245 
Q 2056 3413 2438 3413 
Q 2578 3413 2733 3391 
Q 2888 3369 3059 3328 
z
" transform="scale(0.015625)"/>
        <path id="DejaVuSerif-6c" d="M 1313 331 
L 1856 331 
L 1856 0 
L 184 0 
L 184 331 
L 738 331 
L 738 4531 
L 184 4531 
L 184 4863 
L 1313 4863 
L 1313 331 
z
" transform="scale(0.015625)"/>
       </defs>
       <use xlink:href="#DejaVuSerif-4d"/>
       <use xlink:href="#DejaVuSerif-69" transform="translate(102.392578 0)"/>
       <use xlink:href="#DejaVuSerif-6e" transform="translate(134.375 0)"/>
       <use xlink:href="#DejaVuSerif-69" transform="translate(198.779297 0)"/>
       <use xlink:href="#DejaVuSerif-73" transform="translate(230.761719 0)"/>
       <use xlink:href="#DejaVuSerif-74" transform="translate(282.080078 0)"/>
       <use xlink:href="#DejaVuSerif-72" transform="translate(322.265625 0)"/>
       <use xlink:href="#DejaVuSerif-61" transform="translate(370.068359 0)"/>
       <use xlink:href="#DejaVuSerif-6c" transform="translate(429.6875 0)"/>
       <use xlink:href="#DejaVuSerif-20" transform="translate(461.669922 0)"/>
       <use xlink:href="#DejaVuSerif-33" transform="translate(493.457031 0)"/>
       <use xlink:href="#DejaVuSerif-20" transform="translate(557.080078 0)"/>
       <use xlink:href="#DejaVuSerif-33" transform="translate(588.867188 0)"/>
       <use xlink:href="#DejaVuSerif-42" transform="translate(652.490234 0)"/>
       <use xlink:href="#DejaVuSerif-20" transform="translate(725.976562 0)"/>
       <use xlink:href="#DejaVuSerif-28" transform="translate(757.763672 0)"/>
       <use xlink:href="#DejaVuSerif-47" transform="translate(796.777344 0)"/>
       <use xlink:href="#DejaVuSerif-47" transform="translate(876.660156 0)"/>
       <use xlink:href="#DejaVuSerif-55" transform="translate(956.542969 0)"/>
       <use xlink:href="#DejaVuSerif-46" transform="translate(1040.820312 0)"/>
       <use xlink:href="#DejaVuSerif-20" transform="translate(1110.205078 0)"/>
       <use xlink:href="#DejaVuSerif-51" transform="translate(1141.992188 0)"/>
       <use xlink:href="#DejaVuSerif-34" transform="translate(1223.974609 0)"/>
       <use xlink:href="#DejaVuSerif-5f" transform="translate(1287.597656 0)"/>
       <use xlink:href="#DejaVuSerif-4b" transform="translate(1337.597656 0)"/>
       <use xlink:href="#DejaVuSerif-5f" transform="translate(1412.304688 0)"/>
       <use xlink:href="#DejaVuSerif-4d" transform="translate(1462.304688 0)"/>
       <use xlink:href="#DejaVuSerif-29" transform="translate(1564.697266 0)"/>
      </g>
     </g>
    </g>
   </g>
   <g id="matplotlib.axis_2">
    <g id="ytick_1">
     <g id="line2d_6">
      <path d="M 80.472805 169.321363 
L 507.6 169.321363 
" clip-path="url(#p5116158d9d)" style="fill: none; stroke-dasharray: 0.4,0.66; stroke-dashoffset: 0; stroke: #b0b0b0; stroke-width: 0.4"/>
     </g>
     <g id="line2d_7">
      <defs>
       <path id="m52655d1638" d="M 0 0 
L -3.5 0 
" style="stroke: #000000; stroke-width: 0.8"/>
      </defs>
      <g>
       <use xlink:href="#m52655d1638" x="80.472805" y="169.321363" style="stroke: #000000; stroke-width: 0.8"/>
      </g>
     </g>
     <g id="text_6">
      <!-- 0 -->
      <g transform="translate(67.746555 172.74066) scale(0.09 -0.09)">
       <defs>
        <path id="DejaVuSerif-30" d="M 2034 219 
Q 2513 219 2750 744 
Q 2988 1269 2988 2328 
Q 2988 3391 2750 3916 
Q 2513 4441 2034 4441 
Q 1556 4441 1318 3916 
Q 1081 3391 1081 2328 
Q 1081 1269 1318 744 
Q 1556 219 2034 219 
z
M 2034 -91 
Q 1275 -91 848 546 
Q 422 1184 422 2328 
Q 422 3475 848 4112 
Q 1275 4750 2034 4750 
Q 2797 4750 3222 4112 
Q 3647 3475 3647 2328 
Q 3647 1184 3222 546 
Q 2797 -91 2034 -91 
z
" transform="scale(0.015625)"/>
       </defs>
       <use xlink:href="#DejaVuSerif-30"/>
      </g>
     </g>
    </g>
    <g id="ytick_2">
     <g id="line2d_8">
      <path d="M 80.472805 132.597275 
L 507.6 132.597275 
" clip-path="url(#p5116158d9d)" style="fill: none; stroke-dasharray: 0.4,0.66; stroke-dashoffset: 0; stroke: #b0b0b0; stroke-width: 0.4"/>
     </g>
     <g id="line2d_9">
      <g>
       <use xlink:href="#m52655d1638" x="80.472805" y="132.597275" style="stroke: #000000; stroke-width: 0.8"/>
      </g>
     </g>
     <g id="text_7">
      <!-- 10 -->
      <g transform="translate(62.020305 136.016572) scale(0.09 -0.09)">
       <defs>
        <path id="DejaVuSerif-31" d="M 909 0 
L 909 331 
L 1722 331 
L 1722 4213 
L 781 3603 
L 781 4013 
L 1919 4750 
L 2350 4750 
L 2350 331 
L 3163 331 
L 3163 0 
L 909 0 
z
" transform="scale(0.015625)"/>
       </defs>
       <use xlink:href="#DejaVuSerif-31"/>
       <use xlink:href="#DejaVuSerif-30" transform="translate(63.623047 0)"/>
      </g>
     </g>
    </g>
    <g id="ytick_3">
     <g id="line2d_10">
      <path d="M 80.472805 95.873187 
L 507.6 95.873187 
" clip-path="url(#p5116158d9d)" style="fill: none; stroke-dasharray: 0.4,0.66; stroke-dashoffset: 0; stroke: #b0b0b0; stroke-width: 0.4"/>
     </g>
     <g id="line2d_11">
      <g>
       <use xlink:href="#m52655d1638" x="80.472805" y="95.873187" style="stroke: #000000; stroke-width: 0.8"/>
      </g>
     </g>
     <g id="text_8">
      <!-- 20 -->
      <g transform="translate(62.020305 99.292483) scale(0.09 -0.09)">
       <defs>
        <path id="DejaVuSerif-32" d="M 819 3553 
L 469 3553 
L 469 4384 
Q 803 4563 1142 4656 
Q 1481 4750 1806 4750 
Q 2534 4750 2956 4397 
Q 3378 4044 3378 3438 
Q 3378 2753 2422 1800 
Q 2347 1728 2309 1691 
L 1131 513 
L 3078 513 
L 3078 1088 
L 3444 1088 
L 3444 0 
L 434 0 
L 434 341 
L 1850 1753 
Q 2319 2222 2519 2614 
Q 2719 3006 2719 3438 
Q 2719 3909 2473 4175 
Q 2228 4441 1797 4441 
Q 1350 4441 1106 4219 
Q 863 3997 819 3553 
z
" transform="scale(0.015625)"/>
       </defs>
       <use xlink:href="#DejaVuSerif-32"/>
       <use xlink:href="#DejaVuSerif-30" transform="translate(63.623047 0)"/>
      </g>
     </g>
    </g>
    <g id="ytick_4">
     <g id="line2d_12">
      <path d="M 80.472805 59.149098 
L 507.6 59.149098 
" clip-path="url(#p5116158d9d)" style="fill: none; stroke-dasharray: 0.4,0.66; stroke-dashoffset: 0; stroke: #b0b0b0; stroke-width: 0.4"/>
     </g>
     <g id="line2d_13">
      <g>
       <use xlink:href="#m52655d1638" x="80.472805" y="59.149098" style="stroke: #000000; stroke-width: 0.8"/>
      </g>
     </g>
     <g id="text_9">
      <!-- 30 -->
      <g transform="translate(62.020305 62.568395) scale(0.09 -0.09)">
       <use xlink:href="#DejaVuSerif-33"/>
       <use xlink:href="#DejaVuSerif-30" transform="translate(63.623047 0)"/>
      </g>
     </g>
    </g>
    <g id="ytick_5">
     <g id="line2d_14">
      <path d="M 80.472805 22.42501 
L 507.6 22.42501 
" clip-path="url(#p5116158d9d)" style="fill: none; stroke-dasharray: 0.4,0.66; stroke-dashoffset: 0; stroke: #b0b0b0; stroke-width: 0.4"/>
     </g>
     <g id="line2d_15">
      <g>
       <use xlink:href="#m52655d1638" x="80.472805" y="22.42501" style="stroke: #000000; stroke-width: 0.8"/>
      </g>
     </g>
     <g id="text_10">
      <!-- 40 -->
      <g transform="translate(62.020305 25.844307) scale(0.09 -0.09)">
       <use xlink:href="#DejaVuSerif-34"/>
       <use xlink:href="#DejaVuSerif-30" transform="translate(63.623047 0)"/>
      </g>
     </g>
    </g>
    <g id="text_11">
     <!-- Tokens/s -->
     <g transform="translate(55.940617 112.043494) rotate(-90) scale(0.1 -0.1)">
      <defs>
       <path id="DejaVuSerif-54" d="M 1222 0 
L 1222 331 
L 1819 331 
L 1819 4294 
L 447 4294 
L 447 3566 
L 63 3566 
L 63 4666 
L 4206 4666 
L 4206 3566 
L 3822 3566 
L 3822 4294 
L 2450 4294 
L 2450 331 
L 3047 331 
L 3047 0 
L 1222 0 
z
" transform="scale(0.015625)"/>
       <path id="DejaVuSerif-6f" d="M 1925 219 
Q 2388 219 2623 584 
Q 2859 950 2859 1663 
Q 2859 2375 2623 2739 
Q 2388 3103 1925 3103 
Q 1463 3103 1227 2739 
Q 991 2375 991 1663 
Q 991 950 1228 584 
Q 1466 219 1925 219 
z
M 1925 -91 
Q 1200 -91 759 389 
Q 319 869 319 1663 
Q 319 2456 758 2934 
Q 1197 3413 1925 3413 
Q 2653 3413 3092 2934 
Q 3531 2456 3531 1663 
Q 3531 869 3092 389 
Q 2653 -91 1925 -91 
z
" transform="scale(0.015625)"/>
       <path id="DejaVuSerif-6b" d="M 1831 0 
L 219 0 
L 219 331 
L 738 331 
L 738 4531 
L 184 4531 
L 184 4863 
L 1313 4863 
L 1313 1697 
L 2713 2988 
L 2234 2988 
L 2234 3322 
L 3738 3322 
L 3738 2988 
L 3169 2988 
L 2181 2075 
L 3444 331 
L 3922 331 
L 3922 0 
L 2284 0 
L 2284 331 
L 2759 331 
L 1766 1697 
L 1313 1275 
L 1313 331 
L 1831 331 
L 1831 0 
z
" transform="scale(0.015625)"/>
       <path id="DejaVuSerif-2f" d="M 1656 4666 
L 2156 4666 
L 500 -594 
L 0 -594 
L 1656 4666 
z
" transform="scale(0.015625)"/>
      </defs>
      <use xlink:href="#DejaVuSerif-54"/>
      <use xlink:href="#DejaVuSerif-6f" transform="translate(58.949219 0)"/>
      <use xlink:href="#DejaVuSerif-6b" transform="translate(119.154297 0)"/>
      <use xlink:href="#DejaVuSerif-65" transform="translate(179.75 0)"/>
      <use xlink:href="#DejaVuSerif-6e" transform="translate(238.929688 0)"/>
      <use xlink:href="#DejaVuSerif-73" transform="translate(303.333984 0)"/>
      <use xlink:href="#DejaVuSerif-2f" transform="translate(354.652344 0)"/>
      <use xlink:href="#DejaVuSerif-73" transform="translate(388.34375 0)"/>
     </g>
    </g>
   </g>
   <g id="line2d_16">
    <path d="M 80.472805 95.873187 
L 507.6 95.873187 
" clip-path="url(#p5116158d9d)" style="fill: none; stroke-dasharray: 2.96,1.28; stroke-dashoffset: 0; stroke: #2f8f2f; stroke-width: 0.8"/>
   </g>
   <g id="patch_18">
    <path d="M 80.472805 169.321363 
L 80.472805 10.8 
" style="fill: none; stroke: #000000; stroke-width: 0.8; stroke-linejoin: miter; stroke-linecap: square"/>
   </g>
   <g id="patch_19">
    <path d="M 507.6 169.321363 
L 507.6 10.8 
" style="fill: none; stroke: #000000; stroke-width: 0.8; stroke-linejoin: miter; stroke-linecap: square"/>
   </g>
   <g id="patch_20">
    <path d="M 80.472805 169.321363 
L 507.6 169.321363 
" style="fill: none; stroke: #000000; stroke-width: 0.8; stroke-linejoin: miter; stroke-linecap: square"/>
   </g>
   <g id="patch_21">
    <path d="M 80.472805 10.8 
L 507.6 10.8 
" style="fill: none; stroke: #000000; stroke-width: 0.8; stroke-linejoin: miter; stroke-linecap: square"/>
   </g>
   <g id="legend_1">
    <g id="patch_22">
     <path d="M 87.672805 24.07875 
L 103.672805 24.07875 
L 103.672805 18.47875 
L 87.672805 18.47875 
z
" style="fill: #4c72b0; stroke: #000000; stroke-width: 0.3; stroke-linejoin: miter"/>
    </g>
    <g id="text_12">
     <!-- S1: Interactive -->
     <g transform="translate(110.072805 24.07875) scale(0.08 -0.08)">
      <defs>
       <path id="DejaVuSerif-53" d="M 594 225 
L 594 1288 
L 953 1284 
Q 969 753 1261 498 
Q 1553 244 2150 244 
Q 2706 244 2998 464 
Q 3291 684 3291 1106 
Q 3291 1444 3114 1625 
Q 2938 1806 2369 1978 
L 1753 2163 
Q 1084 2366 811 2669 
Q 538 2972 538 3500 
Q 538 4094 959 4422 
Q 1381 4750 2144 4750 
Q 2469 4750 2856 4679 
Q 3244 4609 3681 4475 
L 3681 3481 
L 3328 3481 
Q 3275 3975 2998 4195 
Q 2722 4416 2156 4416 
Q 1663 4416 1405 4214 
Q 1147 4013 1147 3628 
Q 1147 3294 1340 3103 
Q 1534 2913 2163 2725 
L 2741 2553 
Q 3375 2363 3645 2067 
Q 3916 1772 3916 1275 
Q 3916 597 3481 253 
Q 3047 -91 2188 -91 
Q 1803 -91 1404 -12 
Q 1006 66 594 225 
z
" transform="scale(0.015625)"/>
       <path id="DejaVuSerif-3a" d="M 666 325 
Q 666 500 786 622 
Q 906 744 1081 744 
Q 1256 744 1376 622 
Q 1497 500 1497 325 
Q 1497 150 1378 29 
Q 1259 -91 1081 -91 
Q 903 -91 784 29 
Q 666 150 666 325 
z
M 666 2363 
Q 666 2538 786 2658 
Q 906 2778 1081 2778 
Q 1259 2778 1378 2659 
Q 1497 2541 1497 2363 
Q 1497 2184 1378 2065 
Q 1259 1947 1081 1947 
Q 906 1947 786 2067 
Q 666 2188 666 2363 
z
" transform="scale(0.015625)"/>
       <path id="DejaVuSerif-49" d="M 1581 331 
L 2175 331 
L 2175 0 
L 353 0 
L 353 331 
L 947 331 
L 947 4331 
L 353 4331 
L 353 4666 
L 2175 4666 
L 2175 4331 
L 1581 4331 
L 1581 331 
z
" transform="scale(0.015625)"/>
       <path id="DejaVuSerif-63" d="M 3291 997 
Q 3169 466 2822 187 
Q 2475 -91 1925 -91 
Q 1200 -91 759 389 
Q 319 869 319 1663 
Q 319 2459 759 2936 
Q 1200 3413 1925 3413 
Q 2241 3413 2553 3339 
Q 2866 3266 3181 3116 
L 3181 2266 
L 2847 2266 
Q 2781 2703 2561 2903 
Q 2341 3103 1931 3103 
Q 1466 3103 1228 2742 
Q 991 2381 991 1663 
Q 991 944 1227 581 
Q 1463 219 1931 219 
Q 2303 219 2525 412 
Q 2747 606 2828 997 
L 3291 997 
z
" transform="scale(0.015625)"/>
       <path id="DejaVuSerif-76" d="M 1581 0 
L 359 2988 
L -19 2988 
L -19 3322 
L 1509 3322 
L 1509 2988 
L 978 2988 
L 1913 703 
L 2847 2988 
L 2350 2988 
L 2350 3322 
L 3597 3322 
L 3597 2988 
L 3225 2988 
L 2003 0 
L 1581 0 
z
" transform="scale(0.015625)"/>
      </defs>
      <use xlink:href="#DejaVuSerif-53"/>
      <use xlink:href="#DejaVuSerif-31" transform="translate(68.505859 0)"/>
      <use xlink:href="#DejaVuSerif-3a" transform="translate(132.128906 0)"/>
      <use xlink:href="#DejaVuSerif-20" transform="translate(165.820312 0)"/>
      <use xlink:href="#DejaVuSerif-49" transform="translate(197.607422 0)"/>
      <use xlink:href="#DejaVuSerif-6e" transform="translate(237.109375 0)"/>
      <use xlink:href="#DejaVuSerif-74" transform="translate(301.513672 0)"/>
      <use xlink:href="#DejaVuSerif-65" transform="translate(341.699219 0)"/>
      <use xlink:href="#DejaVuSerif-72" transform="translate(400.878906 0)"/>
      <use xlink:href="#DejaVuSerif-61" transform="translate(448.681641 0)"/>
      <use xlink:href="#DejaVuSerif-63" transform="translate(508.300781 0)"/>
      <use xlink:href="#DejaVuSerif-74" transform="translate(564.306641 0)"/>
      <use xlink:href="#DejaVuSerif-69" transform="translate(604.492188 0)"/>
      <use xlink:href="#DejaVuSerif-76" transform="translate(636.474609 0)"/>
      <use xlink:href="#DejaVuSerif-65" transform="translate(692.96875 0)"/>
     </g>
    </g>
    <g id="patch_23">
     <path d="M 186.245305 24.07875 
L 202.245305 24.07875 
L 202.245305 18.47875 
L 186.245305 18.47875 
z
" style="fill: #55a868; stroke: #000000; stroke-width: 0.3; stroke-linejoin: miter"/>
    </g>
    <g id="text_13">
     <!-- S2: Summarization -->
     <g transform="translate(208.645305 24.07875) scale(0.08 -0.08)">
      <defs>
       <path id="DejaVuSerif-75" d="M 2266 3322 
L 3341 3322 
L 3341 331 
L 3884 331 
L 3884 0 
L 2766 0 
L 2766 588 
Q 2606 256 2353 82 
Q 2100 -91 1766 -91 
Q 1213 -91 952 223 
Q 691 538 691 1209 
L 691 2988 
L 172 2988 
L 172 3322 
L 1269 3322 
L 1269 1388 
Q 1269 781 1417 556 
Q 1566 331 1947 331 
Q 2347 331 2556 625 
Q 2766 919 2766 1478 
L 2766 2988 
L 2266 2988 
L 2266 3322 
z
" transform="scale(0.015625)"/>
       <path id="DejaVuSerif-7a" d="M 256 0 
L 256 269 
L 2338 2988 
L 691 2988 
L 691 2413 
L 359 2413 
L 359 3322 
L 3078 3322 
L 3078 3053 
L 997 331 
L 2803 331 
L 2803 934 
L 3138 934 
L 3138 0 
L 256 0 
z
" transform="scale(0.015625)"/>
      </defs>
      <use xlink:href="#DejaVuSerif-53"/>
      <use xlink:href="#DejaVuSerif-32" transform="translate(68.505859 0)"/>
      <use xlink:href="#DejaVuSerif-3a" transform="translate(132.128906 0)"/>
      <use xlink:href="#DejaVuSerif-20" transform="translate(165.820312 0)"/>
      <use xlink:href="#DejaVuSerif-53" transform="translate(197.607422 0)"/>
      <use xlink:href="#DejaVuSerif-75" transform="translate(266.113281 0)"/>
      <use xlink:href="#DejaVuSerif-6d" transform="translate(330.517578 0)"/>
      <use xlink:href="#DejaVuSerif-6d" transform="translate(425.341797 0)"/>
      <use xlink:href="#DejaVuSerif-61" transform="translate(520.166016 0)"/>
      <use xlink:href="#DejaVuSerif-72" transform="translate(579.785156 0)"/>
      <use xlink:href="#DejaVuSerif-69" transform="translate(627.587891 0)"/>
      <use xlink:href="#DejaVuSerif-7a" transform="translate(659.570312 0)"/>
      <use xlink:href="#DejaVuSerif-61" transform="translate(712.255859 0)"/>
      <use xlink:href="#DejaVuSerif-74" transform="translate(771.875 0)"/>
      <use xlink:href="#DejaVuSerif-69" transform="translate(812.060547 0)"/>
      <use xlink:href="#DejaVuSerif-6f" transform="translate(844.042969 0)"/>
      <use xlink:href="#DejaVuSerif-6e" transform="translate(904.248047 0)"/>
     </g>
    </g>
    <g id="patch_24">
     <path d="M 302.137805 24.07875 
L 318.137805 24.07875 
L 318.137805 18.47875 
L 302.137805 18.47875 
z
" style="fill: #c44e52; stroke: #000000; stroke-width: 0.3; stroke-linejoin: miter"/>
    </g>
    <g id="text_14">
     <!-- S3: JSON -->
     <g transform="translate(324.537805 24.07875) scale(0.08 -0.08)">
      <defs>
       <path id="DejaVuSerif-4a" d="M -538 -1119 
L -538 -384 
L -181 -384 
Q -172 -694 -34 -845 
Q 103 -997 378 -997 
Q 750 -997 897 -762 
Q 1044 -528 1044 153 
L 1044 4331 
L 319 4331 
L 319 4666 
L 2272 4666 
L 2272 4331 
L 1678 4331 
L 1678 128 
Q 1678 -644 1368 -987 
Q 1059 -1331 372 -1331 
Q 150 -1331 -79 -1278 
Q -309 -1225 -538 -1119 
z
" transform="scale(0.015625)"/>
       <path id="DejaVuSerif-4f" d="M 2625 244 
Q 3391 244 3781 770 
Q 4172 1297 4172 2328 
Q 4172 3363 3781 3889 
Q 3391 4416 2625 4416 
Q 1856 4416 1465 3889 
Q 1075 3363 1075 2328 
Q 1075 1297 1465 770 
Q 1856 244 2625 244 
z
M 2625 -91 
Q 2150 -91 1751 65 
Q 1353 222 1050 525 
Q 700 875 529 1319 
Q 359 1763 359 2328 
Q 359 2894 529 3339 
Q 700 3784 1050 4134 
Q 1356 4441 1750 4595 
Q 2144 4750 2625 4750 
Q 3641 4750 4266 4084 
Q 4891 3419 4891 2328 
Q 4891 1769 4719 1320 
Q 4547 872 4197 525 
Q 3891 219 3497 64 
Q 3103 -91 2625 -91 
z
" transform="scale(0.015625)"/>
       <path id="DejaVuSerif-4e" d="M 313 0 
L 313 331 
L 941 331 
L 941 4331 
L 313 4331 
L 313 4666 
L 1509 4666 
L 4306 984 
L 4306 4331 
L 3681 4331 
L 3681 4666 
L 5319 4666 
L 5319 4331 
L 4691 4331 
L 4691 -91 
L 4313 -91 
L 1325 3841 
L 1325 331 
L 1953 331 
L 1953 0 
L 313 0 
z
" transform="scale(0.015625)"/>
      </defs>
      <use xlink:href="#DejaVuSerif-53"/>
      <use xlink:href="#DejaVuSerif-33" transform="translate(68.505859 0)"/>
      <use xlink:href="#DejaVuSerif-3a" transform="translate(132.128906 0)"/>
      <use xlink:href="#DejaVuSerif-20" transform="translate(165.820312 0)"/>
      <use xlink:href="#DejaVuSerif-4a" transform="translate(197.607422 0)"/>
      <use xlink:href="#DejaVuSerif-53" transform="translate(237.695312 0)"/>
      <use xlink:href="#DejaVuSerif-4f" transform="translate(306.201172 0)"/>
      <use xlink:href="#DejaVuSerif-4e" transform="translate(388.183594 0)"/>
     </g>
    </g>
   </g>
  </g>
 </g>
 <defs>
  <clipPath id="p5116158d9d">
   <rect x="80.472805" y="10.8" width="427.127195" height="158.521363"/>
  </clipPath>
 </defs>
</svg>
